<?xml version="1.0" encoding="utf-8"?>
<!-- Generator: Adobe Illustrator 23.0.1, SVG Export Plug-In . SVG Version: 6.00 Build 0)  -->
<svg version="1.1" id="Glyph" xmlns="http://www.w3.org/2000/svg" xmlns:xlink="http://www.w3.org/1999/xlink" x="0px" y="0px"
	 viewBox="0 0 512 512" style="enable-background:new 0 0 512 512;" xml:space="preserve">
<style type="text/css">
	.st0{fill:#FFFFFF;}
</style>
<path class="st0" d="M16,456h48v40H16V456z"/>
<path class="st0" d="M16,80h48v360H16V80z"/>
<path class="st0" d="M40,16L16,64h48L40,16z"/>
<path class="st0" d="M80,357v86.2c3.6,3.3,7.4,6.4,11.5,9L80,357z"/>
<path class="st0" d="M80,188c1.9-6.3,3.9-12.5,6.3-18.6c-1.9-3.4-4.1-8-6.3-13.1V188z"/>
<path class="st0" d="M264,48c-37.2,0-72.3,7.5-103.5,20.9C172.2,84.1,184,103.6,184,120c0,20.2-8.7,39.3-14.3,49.5
	c14.4,37.1,19.6,77.3,14.8,116.9l-20.3,167.5c46.8-38.4,38-173.9,99.8-173.9c72,0,48,184,128,184s104-88,104-208S392,48,264,48z
	 M264,184c-26.5,0-48-21.5-48-48s21.5-48,48-48s48,21.5,48,48S290.5,184,264,184z M344,216c0-26.5,21.5-48,48-48s48,21.5,48,48
	s-21.5,48-48,48S344,242.5,344,216z M416,392c-22.1,0-40-17.9-40-40s17.9-40,40-40s40,17.9,40,40S438.1,392,416,392z"/>
<path class="st0" d="M152,168c0,0,16-24,16-48s-40-64-40-64s-40,40-40,64s16,48,16,48H152z"/>
<path class="st0" d="M158.1,184H97.9c-11,32.2-14.7,66.5-10.6,100.5l22.7,187.6c1.1,9.1,8.8,15.9,17.9,15.9s16.8-6.8,17.9-15.9
	l22.7-187.6C172.8,250.5,169.1,216.2,158.1,184L158.1,184z"/>
</svg>
