<?xml version="1.0" encoding="utf-8"?>
<!-- Generator: Adobe Illustrator 23.0.1, SVG Export Plug-In . SVG Version: 6.00 Build 0)  -->
<svg version="1.1" id="Layer_1" xmlns="http://www.w3.org/2000/svg" xmlns:xlink="http://www.w3.org/1999/xlink" x="0px" y="0px"
	 viewBox="0 0 512 512" style="enable-background:new 0 0 512 512;" xml:space="preserve">
<style type="text/css">
	.st0{fill:#FFFFFF;}
</style>
<g>
	<path class="st0" d="M371.3,206.8l34.5-19.9c8.3,7.3,19.2,11.8,31.2,11.8c26,0,47.1-21.1,47.1-47.1s-21.1-47.1-47.1-47.1
		s-47.1,21.1-47.1,47.1c0,3.2,0.3,6.3,0.9,9.3l-34.5,19.9C362.2,188.8,367.3,197.5,371.3,206.8L371.3,206.8z"/>
	<path class="st0" d="M140.7,305.2l-34.5,19.9c-8.3-7.3-19.2-11.8-31.2-11.8c-26,0-47.1,21.1-47.1,47.1s21.1,47.1,47.1,47.1
		s47.1-21.1,47.1-47.1c0-3.2-0.3-6.3-0.9-9.3l34.5-19.9C149.8,323.2,144.7,314.5,140.7,305.2L140.7,305.2z"/>
	<path class="st0" d="M122.2,151.6c0-26-21.1-47.1-47.1-47.1S28,125.6,28,151.6s21.1,47.1,47.1,47.1c11.9,0,22.9-4.5,31.2-11.8
		l34.5,19.9c4-9.3,9-18,15-26l-34.5-19.9C121.9,157.9,122.2,154.8,122.2,151.6L122.2,151.6z"/>
	<path class="st0" d="M271,420.2v-39.8c-4.9,0.6-9.9,0.9-15,0.9s-10.1-0.3-15-0.9v39.8c-18.7,6.3-32.1,23.9-32.1,44.7
		c0,26,21.1,47.1,47.1,47.1s47.1-21.1,47.1-47.1C303.1,444.1,289.7,426.5,271,420.2z"/>
	<path class="st0" d="M436.9,313.3c-11.9,0-22.9,4.5-31.2,11.8l-34.5-19.9c-4,9.3-9,18-15,26l34.5,19.9c-0.6,3-0.9,6.1-0.9,9.3
		c0,26,21.1,47.1,47.1,47.1s47.1-21.1,47.1-47.1S462.9,313.3,436.9,313.3L436.9,313.3z"/>
	<path class="st0" d="M241,91.8v39.8c4.9-0.6,9.9-0.9,15-0.9c5.1,0,10.1,0.3,15,0.9V91.8c18.7-6.3,32.1-23.9,32.1-44.7
		C303.1,21.1,282,0,256,0s-47.1,21.1-47.1,47.1C208.9,67.9,222.3,85.5,241,91.8z"/>
	<circle class="st0" cx="256" cy="256" r="95.3"/>
</g>
</svg>
